<svg width="36" height="37" viewBox="0 0 36 37" fill="none" xmlns="http://www.w3.org/2000/svg">
<g clip-path="url(#clip0_297_1520)">
<path d="M0 8.03699C0 3.61871 3.58172 0.0369873 8 0.0369873H28C32.4183 0.0369873 36 3.61871 36 8.03699V28.037C36 32.4553 32.4183 36.037 28 36.037H8C3.58172 36.037 0 32.4553 0 28.037V8.03699Z" fill="#00005B"/>
<path d="M0 13.0655C0 8.50513 0 6.22491 0.887516 4.48306C1.6682 2.95089 2.9139 1.70519 4.44608 0.924503C6.18792 0.0369873 8.46814 0.0369873 13.0285 0.0369873H22.9715C27.5319 0.0369873 29.8121 0.0369873 31.5539 0.924503C33.0861 1.70519 34.3318 2.95089 35.1125 4.48306C36 6.22491 36 8.50513 36 13.0655V23.0085C36 27.5689 36 29.8491 35.1125 31.5909C34.3318 33.123 33.0861 34.3688 31.5539 35.1495C29.8121 36.037 27.5319 36.037 22.9715 36.037H13.0285C8.46814 36.037 6.18792 36.037 4.44608 35.1495C2.9139 34.3688 1.6682 33.123 0.887516 31.5909C0 29.8491 0 27.5689 0 23.0085V13.0655Z" fill="#00005B"/>
<path d="M15.513 22.0462H10.6317L9.63854 25.2166C9.61096 25.3342 9.50271 25.4174 9.38495 25.4117H6.91261C6.77162 25.4117 6.72231 25.3322 6.76469 25.1733L10.9909 12.7411C11.0332 12.6112 11.0754 12.4841 11.1177 12.3178C11.173 12.0286 11.2013 11.7347 11.2023 11.4401C11.1901 11.353 11.2653 11.2759 11.3501 11.2883H14.71C14.8085 11.2883 14.8647 11.3244 14.879 11.3966L19.6759 25.1949C19.7181 25.3396 19.6758 25.4118 19.5491 25.4117H16.802C16.7057 25.4226 16.6137 25.3566 16.5907 25.2599L15.513 22.0462ZM11.3924 19.3731H14.7312C14.1826 17.4987 13.5636 15.6489 13.0618 13.7598C12.4932 15.7193 11.9682 17.5367 11.3924 19.3731Z" fill="#9999FF"/>
<path d="M23.2435 20.8222C23.4378 22.432 24.7896 23.1994 26.2864 23.1667C27.1305 23.1502 28.0325 23.0191 28.8212 22.6999C28.8914 22.6425 28.9269 22.6783 28.9269 22.8084V24.8673C28.9335 24.9744 28.8887 25.0701 28.8001 25.1274C27.8198 25.5726 26.6945 25.707 25.6313 25.6899C22.4613 25.6899 20.2843 23.4563 20.2852 20.2066C20.2769 17.127 22.2747 14.529 25.3777 14.529C28.0081 14.4608 29.8291 16.5667 29.8364 19.188C29.8364 19.6654 29.8098 20.1445 29.7519 20.6184C29.7407 20.716 29.6576 20.7918 29.5617 20.7918C27.461 20.7918 25.35 20.8222 23.2435 20.8222ZM23.2435 18.8478C24.4143 18.8478 25.5918 18.8892 26.7618 18.837C26.9376 18.819 27.0683 18.7856 27.0683 18.6028C27.0438 17.631 26.2237 16.8317 25.2721 16.869C24.1223 16.7976 23.3865 17.7683 23.2435 18.8478Z" fill="#9999FF"/>
</g>
<path d="M8 0.286987H28C32.2802 0.286987 35.75 3.75678 35.75 8.03699V28.037C35.75 32.3172 32.2802 35.787 28 35.787H8C3.71979 35.787 0.25 32.3172 0.25 28.037V8.03699C0.25 3.75678 3.71979 0.286987 8 0.286987Z" stroke="url(#paint0_linear_297_1520)" stroke-width="0.5"/>
<defs>
<linearGradient id="paint0_linear_297_1520" x1="0" y1="0.0369873" x2="36" y2="36.037" gradientUnits="userSpaceOnUse">
<stop offset="0.05" stop-color="#9999FF"/>
<stop offset="0.25" stop-color="#00005B"/>
<stop offset="0.75" stop-color="#3737FF"/>
<stop offset="0.95" stop-color="#9999FF"/>
</linearGradient>
<clipPath id="clip0_297_1520">
<path d="M0 8.03699C0 3.61871 3.58172 0.0369873 8 0.0369873H28C32.4183 0.0369873 36 3.61871 36 8.03699V28.037C36 32.4553 32.4183 36.037 28 36.037H8C3.58172 36.037 0 32.4553 0 28.037V8.03699Z" fill="white"/>
</clipPath>
</defs>
</svg>
