<svg width="36" height="37" viewBox="0 0 36 37" fill="none" xmlns="http://www.w3.org/2000/svg">
<g clip-path="url(#clip0_297_1510)">
<path d="M0 13.0655C0 8.50513 0 6.22491 0.887516 4.48306C1.6682 2.95089 2.9139 1.70519 4.44608 0.924503C6.18792 0.0369873 8.46814 0.0369873 13.0285 0.0369873H22.9715C27.5319 0.0369873 29.8121 0.0369873 31.5539 0.924503C33.0861 1.70519 34.3318 2.95089 35.1125 4.48306C36 6.22491 36 8.50513 36 13.0655V23.0085C36 27.5689 36 29.8491 35.1125 31.5909C34.3318 33.123 33.0861 34.3688 31.5539 35.1495C29.8121 36.037 27.5319 36.037 22.9715 36.037H13.0285C8.46814 36.037 6.18792 36.037 4.44608 35.1495C2.9139 34.3688 1.6682 33.123 0.887516 31.5909C0 29.8491 0 27.5689 0 23.0085V13.0655Z" fill="#330000"/>
<path d="M17.5149 22.0829H12.6337L11.6405 25.2471C11.6129 25.3647 11.5047 25.448 11.3869 25.4421H8.91456C8.77356 25.4421 8.72427 25.3627 8.76665 25.2037L12.9929 12.72C13.0352 12.59 13.0775 12.4419 13.1197 12.2758C13.175 11.9865 13.2032 11.6927 13.2043 11.3981C13.1921 11.311 13.2686 11.2341 13.3521 11.2463H16.712C16.8104 11.2463 16.8667 11.2824 16.881 11.3546L21.6779 25.2254C21.7201 25.37 21.6779 25.4422 21.5511 25.4421H18.8039C18.7076 25.4531 18.6156 25.3871 18.5927 25.2905L17.5149 22.0829ZM13.3944 19.352H16.7332C16.1846 17.4776 15.5655 15.6277 15.0638 13.7387C14.5224 15.631 13.9318 17.5156 13.3944 19.352Z" fill="#FF9A00"/>
<path d="M24.5303 13.5435C24.3147 13.5524 24.0999 13.5145 23.8995 13.4324C23.6993 13.3502 23.5181 13.2256 23.3681 13.0667C23.2184 12.9009 23.1021 12.7065 23.0259 12.4945C22.9498 12.2825 22.9152 12.0572 22.9242 11.8314C22.9166 11.6078 22.955 11.3852 23.0369 11.1779C23.1189 10.9707 23.2425 10.7834 23.3998 10.6285C23.5555 10.4752 23.7393 10.3551 23.9407 10.2751C24.1419 10.1951 24.3567 10.1568 24.5725 10.1625C25.0797 10.1625 25.4777 10.3179 25.7664 10.6285C25.9122 10.7899 26.0255 10.9793 26.0999 11.1857C26.1741 11.3921 26.2081 11.6116 26.1996 11.8314C26.2085 12.058 26.1728 12.2842 26.0947 12.4964C26.0168 12.7085 25.8978 12.9025 25.7453 13.0667C25.5859 13.228 25.3955 13.3535 25.1865 13.4356C24.9774 13.5176 24.7539 13.5544 24.5303 13.5435ZM23.0722 25.2253V14.8656C23.0722 14.7356 23.1283 14.6705 23.2413 14.6705H25.8405C25.953 14.6705 26.0093 14.7356 26.0094 14.8656V25.2253C26.0094 25.37 25.9531 25.4422 25.8405 25.4421H23.2624C23.1356 25.4421 23.0722 25.3699 23.0722 25.2253Z" fill="#FF9A00"/>
</g>
<rect x="0.25" y="0.286987" width="35.5" height="35.5" rx="7.75" stroke="url(#paint0_linear_297_1510)" stroke-width="0.5"/>
<defs>
<linearGradient id="paint0_linear_297_1510" x1="0" y1="0.0369873" x2="36" y2="36.037" gradientUnits="userSpaceOnUse">
<stop offset="0.05" stop-color="#FF9A00"/>
<stop offset="0.25" stop-color="#4E2F00"/>
<stop offset="0.75" stop-color="#4E2F00"/>
<stop offset="0.95" stop-color="#FF9A00"/>
</linearGradient>
<clipPath id="clip0_297_1510">
<rect y="0.0369873" width="36" height="36" rx="8" fill="white"/>
</clipPath>
</defs>
</svg>
