<svg width="36" height="37" viewBox="0 0 36 37" fill="none" xmlns="http://www.w3.org/2000/svg">
<path d="M8 0.286987H28C32.2802 0.286987 35.75 3.75678 35.75 8.03699V28.037C35.75 32.3172 32.2802 35.787 28 35.787H8C3.71979 35.787 0.25 32.3172 0.25 28.037V8.03699C0.25 3.75678 3.71979 0.286987 8 0.286987Z" fill="#191919"/>
<path d="M8 0.286987H28C32.2802 0.286987 35.75 3.75678 35.75 8.03699V28.037C35.75 32.3172 32.2802 35.787 28 35.787H8C3.71979 35.787 0.25 32.3172 0.25 28.037V8.03699C0.25 3.75678 3.71979 0.286987 8 0.286987Z" stroke="url(#paint0_linear_297_1483)" stroke-width="0.5"/>
<path d="M9.37842 24.8339L16.7953 31.2875H19.396L25.368 26.0861L25.9459 20.692L20.1665 8.17004H14.4835L9.37842 24.8339Z" fill="#FF5CD6"/>
<path d="M15.8319 23.678H9.95623H9.47461L10.6305 19.2471L12.8459 10.0002L15.8319 8.36267H20.8407L25.1752 15.9722L25.8495 24.5449L15.8319 23.678Z" fill="white"/>
<path fill-rule="evenodd" clip-rule="evenodd" d="M8.3479 22.7559C8.01644 23.5521 7.83127 24.4015 7.80127 25.2635C7.84701 25.795 8.0283 26.306 8.32783 26.7476C8.89143 27.4001 9.56922 27.9445 10.328 28.354L15.2285 31.6165C15.8315 32.0964 16.5096 32.4736 17.2353 32.7327C17.7066 32.8449 18.1976 32.8449 18.6688 32.7327C19.3994 32.4768 20.0829 32.1022 20.6919 31.6242L25.645 28.3597C26.4115 27.949 27.097 27.4024 27.6681 26.7466C27.9697 26.3027 28.1509 25.788 28.1937 25.2529C28.1611 24.384 27.9711 23.5282 27.6327 22.7272L23.3008 9.09403C23.2041 8.6525 23.0293 8.23179 22.7847 7.8517C22.6066 7.63524 22.3764 7.46754 22.1158 7.36432C21.6803 7.24625 21.2273 7.20677 20.7779 7.24773H15.1377C14.6882 7.20687 14.235 7.24734 13.7998 7.36719C13.5386 7.4702 13.3082 7.6387 13.1309 7.85647C12.8874 8.23659 12.7142 8.6574 12.6196 9.09881L8.3479 22.7559ZM21.0006 10.1414C21.2021 10.4617 21.3448 10.8155 21.422 11.1859L25.1414 23.4028C23.7444 22.6782 22.2449 22.1713 20.6948 21.8996L18.278 13.7193C18.2631 13.671 18.2369 13.627 18.2015 13.5909C18.1661 13.5548 18.1226 13.5277 18.0746 13.5119C18.0266 13.496 17.9755 13.492 17.9256 13.5C17.8756 13.508 17.8284 13.5278 17.7877 13.5578C17.7331 13.5977 17.6932 13.6545 17.674 13.7193L15.2849 21.8967C13.7275 22.1679 12.221 22.6768 10.8182 23.4057L14.5529 11.1888C14.6293 10.8176 14.7724 10.4634 14.9753 10.1433C15.1232 9.96178 15.3145 9.82046 15.5314 9.7324C15.897 9.63359 16.2773 9.60122 16.6543 9.63683H19.3234C19.7007 9.60119 20.0814 9.63355 20.4473 9.7324C20.6649 9.82071 20.8566 9.96275 21.0044 10.1452L21.0006 10.1414ZM18.1212 24.8707C19.2713 24.9373 20.4119 24.6277 21.3704 23.9886C21.4794 24.3316 21.518 24.6931 21.484 25.0514C21.45 25.4097 21.3441 25.7574 21.1726 26.0738C20.82 26.6731 20.3083 27.163 19.6942 27.4891C19.0501 27.8982 18.4958 28.2537 18.4958 29.1969C18.495 29.4994 18.5634 29.7982 18.6956 30.0703C18.2612 29.8899 17.89 29.5849 17.629 29.1937C17.3679 28.8025 17.2286 28.3427 17.2287 27.8724V27.8141C17.2287 27.1614 17.2287 26.3577 16.3093 26.3577C16.1812 26.3576 16.0542 26.3826 15.9357 26.4312C15.6971 26.53 15.5074 26.7194 15.4082 26.9578C15.3589 27.0762 15.3332 27.2032 15.3327 27.3315C14.7025 26.6433 14.3641 25.7375 14.3885 24.8047C14.384 24.4011 14.4404 23.999 14.5557 23.6121C14.938 24.3355 16.3906 24.8736 18.1212 24.8736V24.8707Z" fill="#191919"/>
<defs>
<linearGradient id="paint0_linear_297_1483" x1="0" y1="0.0369873" x2="36" y2="36.037" gradientUnits="userSpaceOnUse">
<stop offset="0.05" stop-color="#FF5CD6"/>
<stop offset="0.25" stop-color="#782764"/>
<stop offset="0.75" stop-color="#782764"/>
<stop offset="0.95" stop-color="#FF5CD6"/>
</linearGradient>
</defs>
</svg>
