<svg width="25" height="25" viewBox="0 0 25 25" fill="none" xmlns="http://www.w3.org/2000/svg">
<path d="M22.6088 8.29905C21.29 6.77473 19.705 5.47271 17.8981 4.42951C16.0909 3.38616 14.1712 2.66451 12.1916 2.28456C11.751 2.19516 11.2894 2.2092 10.8564 2.32515C10.7515 2.35328 10.6499 2.38837 10.5513 2.42842L9.94901 15.6649C10.037 15.7279 10.1289 15.7872 10.2244 15.8424C10.3143 15.8943 10.4081 15.9427 10.5029 15.9862C10.5066 15.988 10.5103 15.9897 10.514 15.9913C10.6919 16.0693 10.8972 16.1878 11.0783 16.2923C11.2612 16.3979 11.4539 16.5228 11.6409 16.6444C11.7234 16.7033 11.8097 16.759 11.8978 16.8098C11.9882 16.862 12.0808 16.9095 12.175 16.9522L23.3055 9.78386C23.2287 9.24728 22.9894 8.72948 22.6088 8.29905Z" fill="#F3F4F6"/>
<path d="M24.3547 14.8208C24.0767 13.7231 23.6428 12.6383 23.0625 11.588L14.3939 17.1708C14.4564 17.2459 14.5124 17.3164 14.562 17.3827C14.5641 17.3854 14.566 17.388 14.5681 17.3907C14.6539 17.5023 14.7476 17.607 14.8472 17.7062L24.3498 16.0673C24.4569 15.6711 24.4604 15.2453 24.3547 14.8208Z" fill="#F3F4F6"/>
<path d="M9.11417 3.53444C7.99162 3.55377 6.90961 3.70108 5.88927 3.97455L5.67957 4.03074C5.67163 4.03287 5.66363 4.03518 5.65567 4.03762C5.23317 4.16727 4.87329 4.38016 4.58951 4.66552L7.95571 13.7414C8.08779 13.7765 8.22193 13.8044 8.35813 13.8229C8.45945 13.8383 8.55409 13.8536 8.64393 13.869L9.11417 3.53444Z" fill="#F3F4F6"/>
<path d="M3.86421 6.69435C2.69611 7.44987 1.72626 8.45029 1.03943 9.616C1.03843 9.61775 1.03742 9.6195 1.03636 9.62132L1.02361 9.64341C1.00552 9.67475 0.989908 9.70741 0.976944 9.74112C0.702992 10.4537 0.821428 11.2474 1.29352 11.8651C1.49198 12.1275 1.73549 12.3429 2.01746 12.5057C2.60605 12.8456 3.28706 12.9089 3.88794 12.6802C4.1079 12.6028 4.32151 12.5293 4.51722 12.4767C4.98327 12.3519 5.45167 12.2677 5.9152 12.2245L3.86421 6.69435Z" fill="#F3F4F6"/>
<path d="M22.9511 17.7141L17.1676 18.7116C17.465 19.376 17.6769 20.0433 17.7981 20.7009C17.9054 21.3029 18.2633 21.83 18.8063 22.185C18.8118 22.1886 18.8174 22.1921 18.8229 22.1955C18.8438 22.2084 18.8648 22.2209 18.886 22.2332C19.4495 22.5586 20.097 22.6583 20.662 22.5068C21.1489 22.3764 21.569 22.0578 21.8147 21.6322L21.8274 21.6101C22.5019 20.4419 22.8784 19.1336 22.9511 17.7141Z" fill="#F3F4F6"/>
</svg>
