<svg width="60" height="60" viewBox="0 0 60 60" fill="none" xmlns="http://www.w3.org/2000/svg">
<path d="M27.924 11.7285L26.5345 13.118C23.4694 16.1826 18.4825 16.183 15.4174 13.118C13.0013 10.7019 12.4188 7.03442 13.9682 3.99252C14.4609 3.02538 14.0761 1.84211 13.1089 1.34944C12.142 0.856549 10.9585 1.24149 10.4659 2.20875C8.14151 6.77235 9.01457 12.2735 12.6384 15.8973C17.2361 20.495 24.7167 20.4947 29.3138 15.8973L30.7033 14.5078C32.2022 13.0091 33.964 11.9295 35.8414 11.2682C37.2151 9.54716 38.4832 7.96682 39.6076 6.57568C35.3565 6.772 31.1633 8.48944 27.924 11.7285Z" fill="#F3F4F6"/>
<path d="M54.1345 50.1626C51.3501 51.5802 47.9939 51.0469 45.7826 48.8358C44.4238 47.4769 43.6754 45.6702 43.6754 43.7484C43.6754 41.8266 44.4238 40.0198 45.7826 38.6609L47.0545 37.389C51.1217 33.3218 52.5672 27.611 51.3925 22.3749C53.1242 20.9608 54.2947 19.974 54.6855 19.583C58.1919 16.0764 58.1919 10.3709 54.6855 6.86442C51.179 3.35791 45.4734 3.35791 41.9669 6.86442C39.1115 9.71953 4.53502 54.074 3.06457 55.9607C2.50652 56.6767 2.56948 57.6964 3.2115 58.3382C3.56041 58.6873 4.02104 58.8651 4.4838 58.8651C4.87219 58.8651 5.26229 58.7399 5.58901 58.4852C7.07898 57.324 35.0495 35.5197 48.1567 24.9922C48.4218 28.5251 47.2068 32.1494 44.5109 34.8453L43.239 36.1171C41.2006 38.1555 40.0781 40.8656 40.0781 43.7484C40.0781 46.631 41.2007 49.3412 43.2391 51.3795C45.3181 53.4587 48.0717 54.5485 50.8665 54.5483C52.53 54.5482 54.2086 54.162 55.767 53.3682C56.6522 52.9175 57.0044 51.8344 56.5535 50.9492C56.1027 50.0639 55.0194 49.7119 54.1345 50.1626ZM47.0545 14.4952L44.5106 17.0389C44.9425 17.4707 45.3355 17.9269 45.6913 18.402L44.5106 19.5826C44.1594 19.9339 43.699 20.1095 43.2389 20.1095C42.7786 20.1095 42.3181 19.934 41.9671 19.5826C41.2647 18.8803 41.2647 17.7414 41.9671 17.0389L47.0546 11.9515C47.757 11.2491 48.8959 11.2491 49.5984 11.9515C50.3008 12.6538 50.3008 13.7927 49.5984 14.4952L48.2553 15.8382C47.8839 15.374 47.4844 14.9251 47.0545 14.4952Z" fill="#F3F4F6"/>
</svg>
