<svg width="13" height="14" viewBox="0 0 13 14" fill="none" xmlns="http://www.w3.org/2000/svg">
<path d="M6.40438 2.69562L6.09916 3.00084C5.42589 3.674 4.33049 3.67408 3.65722 3.00084C3.1265 2.47012 2.99854 1.66454 3.33889 0.996366C3.44711 0.783927 3.36258 0.524012 3.15014 0.415795C2.93775 0.307527 2.67778 0.392082 2.56957 0.604547C2.05901 1.60697 2.25078 2.81534 3.04679 3.61134C4.05669 4.62125 5.69987 4.6212 6.70964 3.61134L7.01486 3.30613C7.34412 2.97692 7.7311 2.73977 8.14348 2.59452C8.44524 2.21648 8.72377 1.86935 8.97075 1.56377C8.03698 1.6069 7.11591 1.98415 6.40438 2.69562Z" fill="#F3F4F6"/>
<path d="M12.1617 11.138C11.5501 11.4493 10.8129 11.3322 10.3271 10.8465C10.0287 10.548 9.86427 10.1512 9.86427 9.72902C9.86427 9.30689 10.0287 8.91002 10.3271 8.61152L10.6065 8.33214C11.4999 7.43875 11.8174 6.18434 11.5594 5.03419C11.9398 4.72357 12.1969 4.50682 12.2827 4.42092C13.0529 3.65069 13.0529 2.39743 12.2827 1.6272C11.5125 0.856968 10.2592 0.856968 9.48899 1.6272C8.86178 2.25434 1.26681 11.9971 0.943821 12.4116C0.821242 12.5688 0.83507 12.7928 0.976095 12.9338C1.05274 13.0105 1.15392 13.0495 1.25556 13.0495C1.34088 13.0495 1.42657 13.022 1.49833 12.9661C1.82561 12.711 7.96953 7.92154 10.8486 5.60909C10.9069 6.38513 10.64 7.18121 10.0478 7.77339L9.76841 8.05276C9.32066 8.50052 9.0741 9.09581 9.0741 9.72902C9.0741 10.3622 9.32068 10.9575 9.76844 11.4053C10.2251 11.862 10.83 12.1014 11.4439 12.1013C11.8092 12.1013 12.178 12.0164 12.5203 11.8421C12.7147 11.7431 12.7921 11.5052 12.6931 11.3107C12.594 11.1163 12.3561 11.039 12.1617 11.138ZM10.6065 3.30336L10.0477 3.86209C10.1426 3.95695 10.2289 4.05714 10.3071 4.16151L10.0477 4.42085C9.97059 4.498 9.86945 4.53658 9.76839 4.53658C9.66728 4.53658 9.56615 4.49803 9.48904 4.42085C9.33475 4.26658 9.33475 4.01641 9.48904 3.86209L10.6065 2.74461C10.7608 2.59032 11.011 2.59032 11.1653 2.74461C11.3196 2.89888 11.3196 3.14905 11.1653 3.30336L10.8703 3.59835C10.7887 3.4964 10.701 3.39779 10.6065 3.30336Z" fill="#F3F4F6"/>
</svg>
