<svg width="60" height="60" viewBox="0 0 60 60" fill="none" xmlns="http://www.w3.org/2000/svg">
<g clip-path="url(#clip0_368_1614)">
<path d="M56.4992 2.90995C54.4554 0.952446 52.2035 -0.0394287 49.7979 -0.0394287C46.0367 -0.0394287 43.2917 2.39057 42.5417 3.13495C41.4842 4.1812 5.44292 40.2374 5.44292 40.2374C5.20667 40.4737 5.03604 40.7699 4.94792 41.0924C4.13604 44.0962 0.0635443 57.4237 0.0222943 57.5587C-0.187706 58.2412 -0.000205696 58.9856 0.502294 59.4881C0.864169 59.8481 1.34604 60.0412 1.83917 60.0412C2.03417 60.0412 2.22917 60.0112 2.42042 59.9493C2.55729 59.9043 16.3142 55.4587 18.5792 54.7818C18.8773 54.6918 19.151 54.5306 19.3723 54.3112C20.8029 52.8974 54.4179 19.6556 56.6492 17.3512C58.9573 14.9737 60.1048 12.4949 60.0598 9.99182C60.0129 7.5187 58.8148 5.13745 56.4954 2.91182L56.4992 2.90995ZM41.9435 9.1312C42.8979 9.36182 45.1517 10.1193 47.4523 12.4406C49.7773 14.7862 50.4054 17.4674 50.5235 18.0787C43.151 25.4137 26.1804 42.2043 19.4904 48.8212C18.8735 47.3831 17.8742 45.6487 16.2673 44.0306C14.306 42.0543 12.3092 40.9387 10.7698 40.3106C17.3904 33.6881 34.6817 16.3912 41.9417 9.13307L41.9435 9.1312ZM8.22542 43.4737C9.25667 43.7474 11.396 44.5424 13.5767 46.7399C15.2567 48.4349 16.0498 50.3024 16.406 51.4424C13.7998 52.2806 8.09229 54.2493 4.46792 55.4193C5.54229 51.8831 7.35729 46.3781 8.22542 43.4737ZM53.9304 14.6699C53.8535 14.7487 53.726 14.8762 53.5742 15.0299C52.9817 13.5037 51.9429 11.5424 50.141 9.72745C48.3017 7.87307 46.436 6.77995 44.9417 6.13307C45.0692 6.00745 45.1667 5.90807 45.206 5.87057C45.4198 5.6587 47.3679 3.79682 49.7942 3.79682C51.191 3.79682 52.5635 4.43432 53.8723 5.69057C55.4248 7.1812 56.2273 8.6512 56.2535 10.0612C56.2798 11.5012 55.496 13.0518 53.9285 14.6699H53.9304Z" fill="#F3F4F6"/>
</g>
<defs>
<clipPath id="clip0_368_1614">
<rect width="60" height="60" fill="white"/>
</clipPath>
</defs>
</svg>
