<svg width="36" height="37" viewBox="0 0 36 37" fill="none" xmlns="http://www.w3.org/2000/svg">
<g clip-path="url(#clip0_297_1502)">
<path d="M0 8.03699C0 3.61871 3.58172 0.0369873 8 0.0369873H28C32.4183 0.0369873 36 3.61871 36 8.03699V28.037C36 32.4553 32.4183 36.037 28 36.037H8C3.58172 36.037 0 32.4553 0 28.037V8.03699Z" fill="#272727"/>
<path d="M13.9799 30.097C16.1989 30.097 17.9999 28.2961 17.9999 26.077V22.057H13.9799C11.7609 22.057 9.95996 23.858 9.95996 26.077C9.95996 28.2961 11.7609 30.097 13.9799 30.097Z" fill="#0ACF83"/>
<path d="M9.95996 18.037C9.95996 15.8179 11.7609 14.017 13.9799 14.017H17.9999V22.057H13.9799C11.7609 22.057 9.95996 20.256 9.95996 18.037Z" fill="#A259FF"/>
<path d="M9.95947 9.99695C9.95947 7.7779 11.7604 5.97693 13.9794 5.97693H17.9994V14.017H13.9794C11.7604 14.017 9.95947 12.216 9.95947 9.99695Z" fill="#F24E1E"/>
<path d="M18 5.97693H22.0199C24.239 5.97693 26.0399 7.7779 26.0399 9.99695C26.0399 12.216 24.239 14.017 22.0199 14.017H18V5.97693Z" fill="#FF7262"/>
<path d="M26.0399 18.037C26.0399 20.256 24.239 22.057 22.0199 22.057C19.8009 22.057 18 20.256 18 18.037C18 15.8179 19.8009 14.017 22.0199 14.017C24.239 14.017 26.0399 15.8179 26.0399 18.037Z" fill="#1ABCFE"/>
</g>
<path d="M8 0.286987H28C32.2802 0.286987 35.75 3.75678 35.75 8.03699V28.037C35.75 32.3172 32.2802 35.787 28 35.787H8C3.71979 35.787 0.25 32.3172 0.25 28.037V8.03699C0.25 3.75678 3.71979 0.286987 8 0.286987Z" stroke="url(#paint0_linear_297_1502)" stroke-width="0.5"/>
<defs>
<linearGradient id="paint0_linear_297_1502" x1="36" y1="1.43463" x2="1.16697" y2="36.037" gradientUnits="userSpaceOnUse">
<stop stop-color="#F24E1E"/>
<stop offset="0.346154" stop-color="#A259FF"/>
<stop offset="0.673077" stop-color="#1ABCFE"/>
<stop offset="1" stop-color="#0ACF83"/>
</linearGradient>
<clipPath id="clip0_297_1502">
<path d="M0 8.03699C0 3.61871 3.58172 0.0369873 8 0.0369873H28C32.4183 0.0369873 36 3.61871 36 8.03699V28.037C36 32.4553 32.4183 36.037 28 36.037H8C3.58172 36.037 0 32.4553 0 28.037V8.03699Z" fill="white"/>
</clipPath>
</defs>
</svg>
