<svg width="36" height="37" viewBox="0 0 36 37" fill="none" xmlns="http://www.w3.org/2000/svg">
<path d="M8 0.286987H28C32.2802 0.286987 35.75 3.75678 35.75 8.03699V28.037C35.75 32.3172 32.2802 35.787 28 35.787H8C3.71979 35.787 0.25 32.3172 0.25 28.037V8.03699C0.25 3.75678 3.71979 0.286987 8 0.286987Z" fill="#F05133"/>
<path d="M8 0.286987H28C32.2802 0.286987 35.75 3.75678 35.75 8.03699V28.037C35.75 32.3172 32.2802 35.787 28 35.787H8C3.71979 35.787 0.25 32.3172 0.25 28.037V8.03699C0.25 3.75678 3.71979 0.286987 8 0.286987Z" stroke="url(#paint0_linear_297_1498)" stroke-width="0.5"/>
<path fill-rule="evenodd" clip-rule="evenodd" d="M19.7055 8.18133C18.7635 7.23931 17.2361 7.23931 16.2941 8.18133L15.4841 8.99131L17.3751 10.8822C17.5743 10.8289 17.7837 10.8005 17.9998 10.8005C19.3321 10.8005 20.412 11.8804 20.412 13.2127C20.412 13.4287 20.3835 13.6382 20.3303 13.8375L22.8025 16.3095C23.0017 16.2564 23.2111 16.2279 23.4272 16.2279C24.7595 16.2279 25.8394 17.3078 25.8394 18.6401C25.8394 19.9723 24.7595 21.0523 23.4272 21.0523C22.095 21.0523 21.0151 19.9723 21.0151 18.6401C21.0151 18.424 21.0435 18.2146 21.0967 18.0153L19.2059 16.1244V21.9781C19.9269 22.3952 20.412 23.1747 20.412 24.0675C20.412 25.3998 19.3321 26.4797 17.9998 26.4797C16.6676 26.4797 15.5876 25.3998 15.5876 24.0675C15.5876 23.1747 16.0727 22.3952 16.7937 21.9781V15.3021C16.0727 14.8851 15.5876 14.1055 15.5876 13.2127C15.5876 12.9966 15.6161 12.7871 15.6693 12.5878L13.7785 10.697L8.1441 16.3314C7.20208 17.2733 7.20208 18.8007 8.1441 19.7427L16.2941 27.8928C17.2361 28.8347 18.7635 28.8347 19.7055 27.8928L27.8556 19.7427C28.7975 18.8007 28.7975 17.2733 27.8556 16.3314L19.7055 8.18133ZM14.5884 6.47565C16.4725 4.59161 19.5271 4.59161 21.4111 6.47566L29.5612 14.6257C31.4453 16.5098 31.4453 19.5643 29.5612 21.4484L21.4111 29.5984C19.5271 31.4825 16.4725 31.4825 14.5884 29.5984L6.43842 21.4484C4.55438 19.5643 4.55438 16.5098 6.43843 14.6257L14.5884 6.47565Z" fill="#F3F4F6"/>
<defs>
<linearGradient id="paint0_linear_297_1498" x1="0" y1="0.0369873" x2="36" y2="36.037" gradientUnits="userSpaceOnUse">
<stop offset="0.05" stop-color="#FFD8D0"/>
<stop offset="0.25" stop-color="#651D0F"/>
<stop offset="0.75" stop-color="#651D0F"/>
<stop offset="0.95" stop-color="#FFD8D0"/>
</linearGradient>
</defs>
</svg>
