<svg width="22" height="25" viewBox="0 0 22 25" fill="none" xmlns="http://www.w3.org/2000/svg">
<path d="M10.8776 2.28477C10.8776 3.51925 9.87687 4.51999 8.64239 4.51999C7.40792 4.51999 6.40718 3.51925 6.40718 2.28477C6.40718 1.0503 7.40792 0.0495605 8.64239 0.0495605C9.87687 0.0495605 10.8776 1.0503 10.8776 2.28477Z" fill="#F3F4F6"/>
<path d="M0.0101059 3.67529C0.10833 2.80135 0.896426 2.17251 1.77037 2.27073L5.04788 2.63909C5.92182 2.73732 6.55066 3.52541 6.45244 4.39936C6.35422 5.2733 5.56612 5.90214 4.69218 5.80392L1.41467 5.43556C0.540727 5.33733 -0.0881177 4.54924 0.0101059 3.67529Z" fill="#F3F4F6"/>
<path d="M7.74678 9.99201C7.92413 9.37559 8.56761 9.01964 9.18404 9.19699L12.9988 10.2945C13.6152 10.4719 13.9712 11.1153 13.7938 11.7318C13.6165 12.3482 12.973 12.7041 12.3566 12.5268L8.5418 11.4293C7.92537 11.2519 7.56943 10.6084 7.74678 9.99201Z" fill="#F3F4F6"/>
<path fill-rule="evenodd" clip-rule="evenodd" d="M7.19521 15.8488C7.62081 15.9629 7.95669 16.2897 8.08235 16.712L8.18194 17.0467C8.2817 17.3819 8.28659 17.7383 8.19606 18.0762L7.09601 22.1816C6.89509 22.9315 6.12435 23.3764 5.37451 23.1755C4.62468 22.9746 4.1797 22.2039 4.38062 21.454L5.64228 16.7454C5.82352 16.069 6.51879 15.6676 7.19521 15.8488Z" fill="#F3F4F6"/>
<path d="M10.5975 14.3506C11.3871 14.2631 12.0981 14.8323 12.1855 15.6218L12.5483 18.896C12.6358 19.6856 12.0666 20.3966 11.2771 20.484C10.4875 20.5715 9.77656 20.0024 9.68908 19.2128L9.32632 15.9386C9.23884 15.1491 9.80799 14.4381 10.5975 14.3506Z" fill="#F3F4F6"/>
<path d="M7.10266 5.29012C7.71397 5.0703 8.38773 5.38767 8.60755 5.99899L9.92566 9.66472C10.1455 10.276 9.8281 10.9498 9.21679 11.1696C8.60548 11.3894 7.93171 11.072 7.7119 10.4607L6.39379 6.79501C6.17397 6.18369 6.49134 5.50993 7.10266 5.29012Z" fill="#F3F4F6"/>
<path d="M1.13755 5.82858L4.16063 6.15588L3.58339 9.90499L1.04232 6.87595L1.13755 5.82858Z" fill="#F3F4F6"/>
<path d="M3.27394 12.4342C3.27394 12.7388 3.40486 13.1998 3.47032 13.3923L1.91712 13.2256C1.60767 13.1622 0.942359 12.9281 0.756689 12.4996C0.571019 12.0711 0.556333 11.484 0.572199 11.244L0.923304 7.95307L3.47032 10.9226C3.40486 11.2995 3.27394 12.1295 3.27394 12.4342Z" fill="#F3F4F6"/>
<path d="M4.23266 11.1373L6.63423 9.77502C6.73722 10.1576 7.02325 11.0358 7.34346 11.4884C7.66367 11.9411 8.45062 12.2435 8.80406 12.3381L8.74086 12.7875L11.5383 14.5742L9.41499 16.4952L7.72968 15.3997L7.90735 15.9968L8.28599 17.5239L5.50367 17.4362C5.03318 15.9873 4.09222 12.9968 4.09222 12.626C4.09222 12.2552 4.18585 11.4791 4.23266 11.1373Z" fill="#F3F4F6"/>
<path d="M4.40822 10.1331L6.39548 8.9745C6.10757 8.34485 5.53176 6.97039 5.53176 6.50973C5.53176 6.04908 5.65347 5.68581 5.71433 5.56175L5.84073 5.06318C5.54112 5.29959 4.92364 5.91988 4.85061 6.50973C4.77758 7.09959 4.52525 9.17112 4.40822 10.1331Z" fill="#F3F4F6"/>
<path d="M20.4377 10.3783C20.7048 10.0308 21.203 9.96557 21.5505 10.2327C21.898 10.4998 21.9631 10.998 21.696 11.3455L18.6355 15.3271L16.9296 20.6089L14.2954 20.8547L9.04441 23.9401C8.66654 24.1621 8.18024 24.0358 7.95819 23.6579C7.73616 23.28 7.86249 22.7936 8.24038 22.5716L13.796 19.3073L15.7407 19.1257L17.2096 14.5778L20.4377 10.3783Z" fill="#F3F4F6"/>
</svg>
