<svg width="36" height="37" viewBox="0 0 36 37" fill="none" xmlns="http://www.w3.org/2000/svg">
<path d="M8 0.286987H28C32.2802 0.286987 35.75 3.75678 35.75 8.03699V28.037C35.75 32.3172 32.2802 35.787 28 35.787H8C3.71979 35.787 0.25 32.3172 0.25 28.037V8.03699C0.25 3.75678 3.71979 0.286987 8 0.286987Z" fill="#FF5700"/>
<path d="M8 0.286987H28C32.2802 0.286987 35.75 3.75678 35.75 8.03699V28.037C35.75 32.3172 32.2802 35.787 28 35.787H8C3.71979 35.787 0.25 32.3172 0.25 28.037V8.03699C0.25 3.75678 3.71979 0.286987 8 0.286987Z" stroke="url(#paint0_linear_297_1487)" stroke-width="0.5"/>
<path d="M10.5555 5.12671H11.7193V6.27656H12.7839V5.12671H13.9478V8.60865H12.784V7.44263H11.7194V8.60865H10.5556V5.12671H10.5555ZM15.4781 6.28141H14.4537V5.12671H17.667V6.28141H16.642V8.60865H15.4782V6.28141H15.4781ZM18.177 5.12671H19.3907L20.1371 6.35018L20.8828 5.12671H22.0967V8.60865H20.9377V6.88286L20.137 8.12084H20.1171L19.3159 6.88286V8.60865H18.177V5.12671ZM22.676 5.12671H23.8401V7.45779H25.4768V8.60865H22.676V5.12671ZM8.85352 10.2011L10.5183 28.8735L17.9888 30.9472L25.48 28.8705L27.1465 10.2011L8.85352 10.2011ZM23.6739 14.6323L23.5697 15.7933L23.5239 16.3081H23.5164H18H17.992H14.7604L14.9697 18.653H17.992H18H22.6983H23.3154L23.2595 19.2681L22.7214 25.2973L22.6869 25.6839L18 26.983V26.9834L17.9895 26.9864L13.2984 25.684L12.9775 22.0883H14.0371H15.2764L15.4395 23.9147L17.9899 24.6035L17.992 24.6029V24.6027L20.5464 23.9135L20.812 20.9433H18H17.992H12.8752L12.3124 14.6323L12.2575 14.018H17.992H18H23.7288L23.6739 14.6323Z" fill="#F3F4F6"/>
<defs>
<linearGradient id="paint0_linear_297_1487" x1="0" y1="0.0369873" x2="36" y2="36.037" gradientUnits="userSpaceOnUse">
<stop offset="0.05" stop-color="#FFC1A1"/>
<stop offset="0.25" stop-color="#BC4405"/>
<stop offset="0.75" stop-color="#BC4405"/>
<stop offset="0.95" stop-color="#FFC1A1"/>
</linearGradient>
</defs>
</svg>
