<svg width="36" height="37" viewBox="0 0 36 37" fill="none" xmlns="http://www.w3.org/2000/svg">
<path d="M8 0.286987H28C32.2802 0.286987 35.75 3.75678 35.75 8.03699V28.037C35.75 32.3172 32.2802 35.787 28 35.787H8C3.71979 35.787 0.25 32.3172 0.25 28.037V8.03699C0.25 3.75678 3.71979 0.286987 8 0.286987Z" fill="#FFE62B"/>
<path d="M8 0.286987H28C32.2802 0.286987 35.75 3.75678 35.75 8.03699V28.037C35.75 32.3172 32.2802 35.787 28 35.787H8C3.71979 35.787 0.25 32.3172 0.25 28.037V8.03699C0.25 3.75678 3.71979 0.286987 8 0.286987Z" stroke="url(#paint0_linear_297_1492)" stroke-width="0.5"/>
<path d="M8.65137 32.9564L14.5301 15.0538L32.356 12.9589L33.6835 25.3383L32.0744 32.6602L28.4737 33.6604L18.8918 34.6705L8.65137 32.9564Z" fill="#181818"/>
<path fill-rule="evenodd" clip-rule="evenodd" d="M27.647 33.4164C24.9248 33.4164 23.1652 32.1186 22.3072 30.4213L24.6939 29.0388C25.3226 30.0652 26.1385 30.8189 27.5846 30.8189C28.7983 30.8189 29.5736 30.2116 29.5736 29.3739C29.5736 28.1134 27.892 27.6209 26.7048 27.1124C24.5894 26.2122 23.1854 25.0812 23.1854 22.6929C23.1854 20.4948 24.8609 18.8195 27.4801 18.8195C29.3428 18.8195 30.6843 19.4684 31.6469 21.1641L29.3646 22.6304C28.8623 21.7303 28.3178 21.3743 27.4801 21.3743C26.6206 21.3743 26.0761 21.9191 26.0761 22.6304C26.0761 23.5103 26.6206 23.8661 27.8779 24.4106C30.5128 25.54 32.5064 26.4273 32.5064 29.332C32.5064 31.9715 30.4332 33.4164 27.647 33.4164ZM20.8954 28.9969C20.8954 32.0342 19.0249 33.6395 16.4275 33.6395C14.0813 33.6395 12.6757 32.7422 11.9846 31.1822H11.9612H11.9503H11.9441L14.3293 29.5148C14.7895 30.3307 15.2045 30.9095 16.2091 30.9095C17.1732 30.9095 17.7754 30.4213 17.7754 28.9565V18.7022H20.8954V28.9969ZM3.73535 35.8622H34.9354V4.66223H3.73535V35.8622Z" fill="#FFE62B"/>
<defs>
<linearGradient id="paint0_linear_297_1492" x1="0" y1="0.0369873" x2="36" y2="36.037" gradientUnits="userSpaceOnUse">
<stop offset="0.05" stop-color="#FFFBDF"/>
<stop offset="0.25" stop-color="#BCA500"/>
<stop offset="0.75" stop-color="#BCA500"/>
<stop offset="0.95" stop-color="#FFFBDF"/>
</linearGradient>
</defs>
</svg>
