<svg width="36" height="37" viewBox="0 0 36 37" fill="none" xmlns="http://www.w3.org/2000/svg">
<g clip-path="url(#clip0_297_1514)">
<path d="M0 8.03699C0 3.61871 3.58172 0.0369873 8 0.0369873H28C32.4183 0.0369873 36 3.61871 36 8.03699V28.037C36 32.4553 32.4183 36.037 28 36.037H8C3.58172 36.037 0 32.4553 0 28.037V8.03699Z" fill="#272727"/>
<path d="M0 13.0655C0 8.50513 0 6.22491 0.887516 4.48306C1.6682 2.95089 2.9139 1.70519 4.44608 0.924503C6.18792 0.0369873 8.46814 0.0369873 13.0285 0.0369873H22.9715C27.5319 0.0369873 29.8121 0.0369873 31.5539 0.924503C33.0861 1.70519 34.3318 2.95089 35.1125 4.48306C36 6.22491 36 8.50513 36 13.0655V23.0085C36 27.5689 36 29.8491 35.1125 31.5909C34.3318 33.123 33.0861 34.3688 31.5539 35.1495C29.8121 36.037 27.5319 36.037 22.9715 36.037H13.0285C8.46814 36.037 6.18792 36.037 4.44608 35.1495C2.9139 34.3688 1.6682 33.123 0.887516 31.5909C0 29.8491 0 27.5689 0 23.0085V13.0655Z" fill="#001E36"/>
<path d="M18.7936 25.4846H10.4678C10.3269 25.4846 10.2565 25.4051 10.2565 25.2462V11.4838C10.241 11.3718 10.3376 11.2727 10.4467 11.2887H13.0248C13.1096 11.2764 13.1845 11.3547 13.1726 11.4405V22.7538H19.2374C19.3641 22.7538 19.4135 22.8188 19.3852 22.9489L19.0049 25.2895C19.0016 25.4074 18.9049 25.4834 18.7936 25.4846Z" fill="#31A8FF"/>
<path d="M20.9085 14.6979H23.2118C23.3389 14.699 23.4529 14.789 23.4866 14.9147C23.6553 15.2991 23.6761 15.7626 23.6768 16.1776C24.0718 15.7059 24.5481 15.3128 25.0819 15.0182C25.6546 14.6859 26.3037 14.5175 26.9615 14.5305C27.0706 14.5145 27.1672 14.6136 27.1516 14.7256V17.3481C27.1516 17.4493 27.0809 17.4997 26.9403 17.4997C25.9654 17.4308 24.4475 17.667 23.7391 18.4534V25.2721C23.7391 25.4022 23.6828 25.4672 23.57 25.4672H21.0988C20.9774 25.485 20.8703 25.3729 20.8874 25.2504V17.8466C20.8874 16.8544 20.9084 15.8325 20.7606 14.8497C20.7379 14.7592 20.8223 14.6752 20.9085 14.6979Z" fill="#31A8FF"/>
</g>
<path d="M8 0.286987H28C32.2802 0.286987 35.75 3.75678 35.75 8.03699V28.037C35.75 32.3172 32.2802 35.787 28 35.787H8C3.71979 35.787 0.25 32.3172 0.25 28.037V8.03699C0.25 3.75678 3.71979 0.286987 8 0.286987Z" stroke="url(#paint0_linear_297_1514)" stroke-width="0.5"/>
<defs>
<linearGradient id="paint0_linear_297_1514" x1="0" y1="0.0369873" x2="36" y2="36.037" gradientUnits="userSpaceOnUse">
<stop offset="0.05" stop-color="#31A8FF"/>
<stop offset="0.25" stop-color="#0C4168"/>
<stop offset="0.75" stop-color="#0C4168"/>
<stop offset="0.95" stop-color="#31A8FF"/>
</linearGradient>
<clipPath id="clip0_297_1514">
<path d="M0 8.03699C0 3.61871 3.58172 0.0369873 8 0.0369873H28C32.4183 0.0369873 36 3.61871 36 8.03699V28.037C36 32.4553 32.4183 36.037 28 36.037H8C3.58172 36.037 0 32.4553 0 28.037V8.03699Z" fill="white"/>
</clipPath>
</defs>
</svg>
