<svg width="36" height="36" viewBox="0 0 36 36" fill="none" xmlns="http://www.w3.org/2000/svg">
<g clip-path="url(#clip0_21_2256)">
<path d="M33.4887 32.4703C34.3481 31.6108 35.011 30.5718 35.4396 29.4123C35.8682 28.2529 36.054 26.9958 35.9865 25.7129C35.919 24.43 35.5994 23.1463 35.0461 21.9352C34.4927 20.7241 33.7164 19.6092 32.7615 18.6543C31.8066 17.6994 30.6917 16.9231 29.4806 16.3698C28.2695 15.8164 26.9858 15.4969 25.7029 15.4294C24.4199 15.3618 23.1628 15.5477 22.0034 15.9762C20.844 16.4048 19.8049 17.0677 18.9454 17.9272L33.4887 32.4703Z" fill="url(#paint0_linear_21_2256)"/>
<path d="M2.51135 3.52922C1.65192 4.38864 0.988987 5.42773 0.560409 6.58717C0.131832 7.7466 -0.0540006 9.00367 0.013522 10.2866C0.0810446 11.5695 0.4006 12.8532 0.953943 14.0643C1.50729 15.2754 2.28358 16.3903 3.2385 17.3452C4.19342 18.3001 5.30827 19.0764 6.5194 19.6297C7.73052 20.183 9.0142 20.5026 10.2971 20.5701C11.5801 20.6376 12.8372 20.4518 13.9966 20.0232C15.156 19.5947 16.1951 18.9317 17.0546 18.0723L2.51135 3.52922Z" fill="url(#paint1_linear_21_2256)"/>
<path d="M3.52938 33.4883C4.38881 34.3477 5.42791 35.0107 6.58735 35.4392C7.74679 35.8678 9.00387 36.0536 10.2868 35.9861C11.5698 35.9186 12.8534 35.599 14.0646 35.0457C15.2757 34.4924 16.3905 33.7161 17.3454 32.7612C18.3004 31.8062 19.0767 30.6914 19.63 29.4803C20.1834 28.2692 20.5029 26.9855 20.5704 25.7026C20.638 24.4197 20.4521 23.1626 20.0236 22.0032C19.595 20.8437 18.932 19.8046 18.0726 18.9452L3.52938 33.4883Z" fill="url(#paint2_linear_21_2256)"/>
<path d="M32.4703 2.51135C31.6108 1.65193 30.5717 0.989005 29.4123 0.560433C28.2528 0.13186 26.9958 -0.0539702 25.7128 0.0135528C24.4299 0.0810757 23.1462 0.400629 21.9351 0.953968C20.724 1.50731 19.6091 2.28359 18.6542 3.23851C17.6993 4.19342 16.923 5.30826 16.3696 6.51937C15.8163 7.73049 15.4967 9.01415 15.4292 10.2971C15.3617 11.58 15.5475 12.8371 15.9761 13.9965C16.4047 15.1559 17.0676 16.195 17.927 17.0545L32.4703 2.51135Z" fill="url(#paint3_linear_21_2256)"/>
</g>
<defs>
<linearGradient id="paint0_linear_21_2256" x1="25.0461" y1="10.8712" x2="-5.56275" y2="42.6757" gradientUnits="userSpaceOnUse">
<stop stop-color="#A8DADC"/>
<stop offset="1" stop-color="#FAF7EE" stop-opacity="0"/>
</linearGradient>
<linearGradient id="paint1_linear_21_2256" x1="25.0461" y1="10.8712" x2="-5.56275" y2="42.6757" gradientUnits="userSpaceOnUse">
<stop stop-color="#A8DADC"/>
<stop offset="1" stop-color="#FAF7EE" stop-opacity="0"/>
</linearGradient>
<linearGradient id="paint2_linear_21_2256" x1="25.0461" y1="10.8712" x2="-5.56275" y2="42.6757" gradientUnits="userSpaceOnUse">
<stop stop-color="#A8DADC"/>
<stop offset="1" stop-color="#FAF7EE" stop-opacity="0"/>
</linearGradient>
<linearGradient id="paint3_linear_21_2256" x1="25.0461" y1="10.8712" x2="-5.56275" y2="42.6757" gradientUnits="userSpaceOnUse">
<stop stop-color="#A8DADC"/>
<stop offset="1" stop-color="#FAF7EE" stop-opacity="0"/>
</linearGradient>
<clipPath id="clip0_21_2256">
<rect width="36" height="36" fill="white"/>
</clipPath>
</defs>
</svg>
