<svg width="60" height="60" viewBox="0 0 60 60" fill="none" xmlns="http://www.w3.org/2000/svg">
<g clip-path="url(#clip0_21_2355)">
<path d="M30.0005 1.61171e-05C22.044 1.57693e-05 14.4134 3.16073 8.78731 8.78682C3.16122 14.4129 0.000517363 22.0435 0.000516415 30.0001C0.000515466 37.9566 3.16122 45.5872 8.78731 51.2133C14.4134 56.8394 22.044 60.0001 30.0005 60.0001L30.0005 30.0001L30.0005 1.61171e-05Z" fill="url(#paint0_linear_21_2355)"/>
<path d="M60.0005 4.35829e-05C52.044 4.32351e-05 44.4134 3.16075 38.7873 8.78685C33.1612 14.4129 30.0005 22.0436 30.0005 30.0001C30.0005 37.9566 33.1612 45.5872 38.7873 51.2133C44.4134 56.8394 52.044 60.0001 60.0005 60.0001L60.0005 4.35829e-05Z" fill="url(#paint1_linear_21_2355)"/>
</g>
<defs>
<linearGradient id="paint0_linear_21_2355" x1="30.0005" y1="60.0001" x2="30.0005" y2="1.52588e-05" gradientUnits="userSpaceOnUse">
<stop stop-color="#FAF7EE" stop-opacity="0"/>
<stop offset="1" stop-color="#E63946"/>
</linearGradient>
<linearGradient id="paint1_linear_21_2355" x1="30.0005" y1="60.0001" x2="30.0005" y2="1.52588e-05" gradientUnits="userSpaceOnUse">
<stop stop-color="#FAF7EE" stop-opacity="0"/>
<stop offset="1" stop-color="#E63946"/>
</linearGradient>
<clipPath id="clip0_21_2355">
<rect width="60" height="60" fill="white" transform="matrix(-1 0 0 -1 60 60)"/>
</clipPath>
</defs>
</svg>
