<svg width="36" height="37" viewBox="0 0 36 37" fill="none" xmlns="http://www.w3.org/2000/svg">
<g clip-path="url(#clip0_297_1474)">
<path d="M0 8.03699C0 3.61871 3.58172 0.0369873 8 0.0369873H28C32.4183 0.0369873 36 3.61871 36 8.03699V28.037C36 32.4553 32.4183 36.037 28 36.037H8C3.58172 36.037 0 32.4553 0 28.037V8.03699Z" fill="#171717"/>
<mask id="mask0_297_1474" style="mask-type:luminance" maskUnits="userSpaceOnUse" x="0" y="0" width="36" height="37">
<path d="M36 0.0369873H0V36.037H36V0.0369873Z" fill="white"/>
</mask>
<g mask="url(#mask0_297_1474)">
<path d="M27.7725 33.1608L26.5235 33.9277L9.10343 28.5972L8.46289 9.0531L26.0203 9.75801L27.7725 33.1608Z" fill="url(#paint0_linear_297_1474)"/>
<path d="M16.8211 0.0439909C16.7437 0.051029 16.4973 0.0756624 16.2756 0.0932577C11.1625 0.554254 6.37302 3.3132 3.33958 7.55367C1.65043 9.91144 0.570089 12.5859 0.161877 15.4188C0.0175953 16.4077 0 16.6998 0 18.0405C0 19.3813 0.0175953 19.6734 0.161877 20.6622C1.14018 27.4224 5.95074 33.1021 12.4751 35.2065C13.6434 35.583 14.8751 35.8399 16.2756 35.9947C16.8211 36.0546 19.1789 36.0546 19.7244 35.9947C22.142 35.7273 24.1901 35.1291 26.21 34.098C26.5197 33.9396 26.5794 33.8974 26.5372 33.8622C26.509 33.841 25.1895 32.071 23.6058 29.9314L20.7273 26.0428L17.1202 20.7045C15.1354 17.7696 13.5026 15.3696 13.4886 15.3696C13.4745 15.366 13.4604 17.7379 13.4534 20.634C13.4428 25.705 13.4393 25.9092 13.376 26.0287C13.2845 26.2012 13.2141 26.2716 13.0663 26.349C12.9537 26.4054 12.8551 26.4159 12.3238 26.4159H11.715L11.5531 26.3139C11.4475 26.247 11.3701 26.1589 11.3173 26.0569L11.2434 25.8985L11.2504 18.8428L11.261 11.7836L11.3701 11.6463C11.4264 11.5724 11.546 11.4774 11.6305 11.4317C11.7748 11.3613 11.8311 11.3543 12.4399 11.3543C13.1578 11.3543 13.2774 11.3824 13.4639 11.5865C13.5167 11.6428 15.4698 14.5848 17.8065 18.1285C20.1431 21.6721 23.3384 26.5108 24.908 28.8862L27.7584 33.2041L27.9027 33.1092C29.1801 32.2786 30.5314 31.0962 31.6011 29.8645C33.8779 27.2499 35.3454 24.0616 35.8381 20.6622C35.9824 19.6734 36 19.3813 36 18.0405C36 16.6998 35.9824 16.4077 35.8381 15.4188C34.8598 8.65866 30.0492 2.97889 23.525 0.874489C22.3742 0.501469 21.1496 0.244578 19.7772 0.0897387C19.4393 0.0545481 17.1132 0.0158384 16.8211 0.0439909ZM24.19 10.932C24.3589 11.0164 24.4962 11.1783 24.5454 11.3472C24.5736 11.4387 24.5807 13.3953 24.5736 17.8047L24.5631 24.132L23.4475 22.4217L22.3284 20.7115V16.1121C22.3284 13.1384 22.3425 11.4669 22.3636 11.3859C22.4199 11.1889 22.5431 11.034 22.712 10.9425C22.8563 10.8686 22.909 10.8616 23.4616 10.8616C23.9824 10.8616 24.0739 10.8686 24.19 10.932Z" fill="#171717"/>
</g>
</g>
<path d="M8 0.286987H28C32.2802 0.286987 35.75 3.75678 35.75 8.03699V28.037C35.75 32.3172 32.2802 35.787 28 35.787H8C3.71979 35.787 0.25 32.3172 0.25 28.037V8.03699C0.25 3.75678 3.71979 0.286987 8 0.286987Z" stroke="url(#paint1_linear_297_1474)" stroke-width="0.5"/>
<defs>
<linearGradient id="paint0_linear_297_1474" x1="20.7008" y1="24.2841" x2="26.0762" y2="31.984" gradientUnits="userSpaceOnUse">
<stop stop-color="#F2F2F2"/>
<stop offset="1" stop-color="#171717"/>
</linearGradient>
<linearGradient id="paint1_linear_297_1474" x1="0" y1="0.0369873" x2="36" y2="36.037" gradientUnits="userSpaceOnUse">
<stop offset="0.05" stop-color="#EDEDED"/>
<stop offset="0.25" stop-color="#666666"/>
<stop offset="0.5" stop-color="#666666"/>
<stop offset="0.75" stop-color="#666666"/>
<stop offset="0.95" stop-color="#EDEDED"/>
</linearGradient>
<clipPath id="clip0_297_1474">
<path d="M0 8.03699C0 3.61871 3.58172 0.0369873 8 0.0369873H28C32.4183 0.0369873 36 3.61871 36 8.03699V28.037C36 32.4553 32.4183 36.037 28 36.037H8C3.58172 36.037 0 32.4553 0 28.037V8.03699Z" fill="white"/>
</clipPath>
</defs>
</svg>
