<svg width="36" height="37" viewBox="0 0 36 37" fill="none" xmlns="http://www.w3.org/2000/svg">
<g clip-path="url(#clip0_297_1524)">
<path d="M0 8.03699C0 3.61871 3.58172 0.0369873 8 0.0369873H28C32.4183 0.0369873 36 3.61871 36 8.03699V28.037C36 32.4553 32.4183 36.037 28 36.037H8C3.58172 36.037 0 32.4553 0 28.037V8.03699Z" fill="#00005B"/>
<path d="M0 13.1672C0 8.56929 0 6.27032 0.894817 4.51415C1.68192 2.96937 2.93787 1.71342 4.48265 0.926311C6.23883 0.0314941 8.5378 0.0314941 13.1357 0.0314941H23.1604C27.7584 0.0314941 30.0574 0.0314941 31.8134 0.926311C33.3582 1.71342 34.6142 2.96937 35.4013 4.51415C36.2961 6.27032 36.2961 8.56929 36.2961 13.1672V23.1919C36.2961 27.7899 36.2961 30.0889 35.4013 31.8449C34.6142 33.3897 33.3582 34.6457 31.8134 35.4328C30.0574 36.3276 27.7584 36.3276 23.1604 36.3276H13.1357C8.5378 36.3276 6.23883 36.3276 4.48265 35.4328C2.93787 34.6457 1.68192 33.3897 0.894817 31.8449C0 30.0889 0 27.7899 0 23.1919V13.1672Z" fill="#00005B"/>
<path d="M9 24.5571V10.3959C9 10.2996 9.03949 10.2446 9.13164 10.2446C10.492 10.2446 11.8518 10.162 13.2126 10.162C15.4205 10.162 17.8113 10.9315 18.6493 13.286C18.8468 13.864 18.9521 14.4558 18.9521 15.0751C18.9521 16.2586 18.6888 17.2357 18.1622 18.0064C16.6914 20.1592 14.1419 20.1258 11.8566 20.1258V24.5433C11.8745 24.6741 11.7651 24.736 11.6592 24.736H9.15797C9.05266 24.736 9 24.681 9 24.5571ZM11.8698 12.9007V17.5247C12.776 17.5924 13.7241 17.5997 14.5947 17.3045C15.5559 17.0219 16.0823 16.1739 16.0823 15.1577C16.1091 14.2918 15.6462 13.4608 14.8581 13.1484C13.9979 12.7838 12.7983 12.762 11.8698 12.9007Z" fill="#9999FF"/>
<path d="M20.7365 13.7754H23.0468C23.1742 13.7766 23.2886 13.8686 23.3222 13.997C23.4915 14.39 23.5125 14.864 23.513 15.2882C23.9093 14.8059 24.3869 14.4042 24.9224 14.1028C25.4967 13.7631 26.1478 13.5909 26.8075 13.6043C26.9171 13.5879 27.0139 13.6892 26.9983 13.8036V16.4846C26.9983 16.5882 26.9274 16.6398 26.7863 16.6398C25.8085 16.5692 24.2861 16.8108 23.5756 17.6147V24.5856C23.5756 24.7186 23.5191 24.7851 23.406 24.7851H20.9273C20.8056 24.8033 20.6982 24.6888 20.7154 24.5635V16.9943C20.7154 15.9801 20.7364 14.9353 20.5883 13.9305C20.5654 13.8381 20.65 13.7521 20.7365 13.7754Z" fill="#9999FF"/>
</g>
<path d="M8 0.286987H28C32.2802 0.286987 35.75 3.75678 35.75 8.03699V28.037C35.75 32.3172 32.2802 35.787 28 35.787H8C3.71979 35.787 0.25 32.3172 0.25 28.037V8.03699C0.25 3.75678 3.71979 0.286987 8 0.286987Z" stroke="url(#paint0_linear_297_1524)" stroke-width="0.5"/>
<defs>
<linearGradient id="paint0_linear_297_1524" x1="0" y1="0.0369873" x2="36" y2="36.037" gradientUnits="userSpaceOnUse">
<stop offset="0.05" stop-color="#9999FF"/>
<stop offset="0.25" stop-color="#00005B"/>
<stop offset="0.75" stop-color="#3737FF"/>
<stop offset="0.95" stop-color="#9999FF"/>
</linearGradient>
<clipPath id="clip0_297_1524">
<path d="M0 8.03699C0 3.61871 3.58172 0.0369873 8 0.0369873H28C32.4183 0.0369873 36 3.61871 36 8.03699V28.037C36 32.4553 32.4183 36.037 28 36.037H8C3.58172 36.037 0 32.4553 0 28.037V8.03699Z" fill="white"/>
</clipPath>
</defs>
</svg>
