<svg width="36" height="37" viewBox="0 0 36 37" fill="none" xmlns="http://www.w3.org/2000/svg">
<path d="M8 0.286987H28C32.2802 0.286987 35.75 3.75678 35.75 8.03699V28.037C35.75 32.3172 32.2802 35.787 28 35.787H8C3.71979 35.787 0.25 32.3172 0.25 28.037V8.03699C0.25 3.75678 3.71979 0.286987 8 0.286987Z" fill="#181B20"/>
<path d="M8 0.286987H28C32.2802 0.286987 35.75 3.75678 35.75 8.03699V28.037C35.75 32.3172 32.2802 35.787 28 35.787H8C3.71979 35.787 0.25 32.3172 0.25 28.037V8.03699C0.25 3.75678 3.71979 0.286987 8 0.286987Z" stroke="url(#paint0_linear_297_1471)" stroke-width="0.5"/>
<path d="M26.9024 13.697C26.6157 13.5983 26.3187 13.505 26.0129 13.4167C26.0632 13.2116 26.1093 13.0091 26.1503 12.81C26.8236 9.54184 26.3834 6.90894 24.8802 6.04208C23.4388 5.21088 21.0815 6.07754 18.7008 8.14943C18.4718 8.34866 18.2423 8.5596 18.0128 8.78066C17.8599 8.6344 17.7072 8.49306 17.555 8.35786C15.0599 6.14246 12.5589 5.20886 11.0572 6.07823C9.61718 6.91184 9.19073 9.38702 9.79679 12.4843C9.85531 12.7835 9.92372 13.089 10.0011 13.3996C9.64713 13.5001 9.30542 13.6072 8.97847 13.7212C6.05324 14.741 4.18506 16.3394 4.18506 17.9973C4.18506 19.7097 6.19055 21.4272 9.2374 22.4686C9.47785 22.5508 9.72734 22.6285 9.98446 22.7022C9.901 23.0382 9.82841 23.3674 9.76748 23.6885C9.1896 26.7321 9.64088 29.1488 11.0771 29.9771C12.5605 30.8326 15.0501 29.9533 17.4744 27.8341C17.666 27.6666 17.8583 27.489 18.051 27.3028C18.3006 27.5432 18.5499 27.7708 18.7979 27.9842C21.1461 30.0049 23.4653 30.8209 24.9002 29.9902C26.3821 29.1323 26.8638 26.5362 26.2385 23.3776C26.1907 23.1364 26.1351 22.89 26.0727 22.6391C26.2476 22.5874 26.4192 22.5341 26.5866 22.4786C29.7541 21.4291 31.8149 19.7325 31.8149 17.9973C31.8149 16.3334 29.8865 14.7243 26.9024 13.697ZM26.2154 21.3582C26.0643 21.4082 25.9093 21.4566 25.7513 21.5034C25.4016 20.3964 24.9297 19.2193 24.3521 18.0031C24.9033 16.8159 25.357 15.6538 25.6968 14.554C25.9795 14.6357 26.2538 14.722 26.5182 14.813C29.075 15.6932 30.6346 16.9946 30.6346 17.9973C30.6346 19.0655 28.9503 20.452 26.2154 21.3582ZM25.0806 23.6069C25.3571 25.0035 25.3965 26.2663 25.2134 27.2535C25.0488 28.1405 24.7179 28.7319 24.3087 28.9688C23.438 29.4728 21.5759 28.8176 19.5677 27.0895C19.3375 26.8914 19.1056 26.6799 18.873 26.456C19.6515 25.6045 20.4296 24.6147 21.189 23.5153C22.5247 23.3968 23.7866 23.203 24.931 22.9385C24.9874 23.1659 25.0374 23.3888 25.0806 23.6069ZM13.6047 28.8817C12.754 29.1821 12.0764 29.1907 11.6668 28.9545C10.7953 28.4519 10.433 26.5115 10.9272 23.9086C10.9838 23.6105 11.0512 23.3043 11.1288 22.9914C12.2607 23.2416 13.5134 23.4217 14.8523 23.5303C15.6168 24.606 16.4174 25.5948 17.2241 26.4606C17.0479 26.6307 16.8723 26.7927 16.6977 26.9454C15.6257 27.8824 14.5514 28.5473 13.6047 28.8817ZM9.61915 21.3517C8.27189 20.8912 7.15927 20.2927 6.39662 19.6396C5.71134 19.0528 5.36535 18.4701 5.36535 17.9973C5.36535 16.9913 6.86531 15.708 9.367 14.8358C9.67054 14.7299 9.9883 14.6302 10.3181 14.5365C10.6638 15.6612 11.1173 16.837 11.6647 18.0261C11.1103 19.2328 10.6503 20.4274 10.3011 21.5652C10.0661 21.4976 9.8383 21.4265 9.61915 21.3517ZM10.9551 12.2577C10.4359 9.60395 10.7807 7.6021 11.6485 7.09976C12.5729 6.56463 14.6169 7.32762 16.7712 9.24051C16.9089 9.36277 17.0472 9.49074 17.1858 9.62313C16.383 10.4851 15.5898 11.4665 14.8321 12.5359C13.5326 12.6563 12.2887 12.8498 11.1451 13.1089C11.0732 12.8196 11.0095 12.5355 10.9551 12.2577ZM22.8734 15.2006C22.6 14.7283 22.3194 14.2673 22.0332 13.8188C22.9148 13.9302 23.7594 14.0782 24.5526 14.2592C24.3145 15.0224 24.0177 15.8204 23.6683 16.6384C23.4177 16.1626 23.1526 15.6828 22.8734 15.2006ZM18.0132 10.4667C18.5576 11.0565 19.1028 11.715 19.6391 12.4295C19.0987 12.404 18.5516 12.3907 18 12.3907C17.4536 12.3907 16.9105 12.4037 16.3735 12.4288C16.9103 11.7209 17.4602 11.0633 18.0132 10.4667ZM13.1218 15.2087C12.8487 15.6823 12.5885 16.1595 12.3418 16.6375C11.9981 15.8223 11.7041 15.0207 11.4639 14.2467C12.2522 14.0703 13.0928 13.9261 13.9688 13.8167C13.6786 14.2693 13.3956 14.7339 13.1218 15.2087ZM13.994 22.2622C13.089 22.1612 12.2357 22.0244 11.4476 21.8528C11.6916 21.065 11.9922 20.2463 12.3432 19.4136C12.5905 19.8913 12.8517 20.3686 13.1265 20.8432C13.4064 21.3267 13.6964 21.8003 13.994 22.2622ZM18.0458 25.6112C17.4864 25.0076 16.9284 24.34 16.3834 23.6218C16.9125 23.6425 17.4518 23.6531 18 23.6531C18.5632 23.6531 19.1199 23.6405 19.6679 23.6161C19.1298 24.3472 18.5866 25.0159 18.0458 25.6112ZM23.6795 19.3711C24.0488 20.2128 24.3602 21.0273 24.6073 21.8017C23.8062 21.9844 22.9413 22.1316 22.03 22.241C22.3168 21.7865 22.5999 21.3175 22.8781 20.8351C23.1596 20.347 23.4269 19.8582 23.6795 19.3711ZM21.8557 20.2454C21.4238 20.9943 20.9804 21.7092 20.5303 22.384C19.7104 22.4426 18.8633 22.4728 18 22.4728C17.1402 22.4728 16.3038 22.4461 15.4984 22.3938C15.0301 21.7102 14.5771 20.9931 14.1479 20.2518C13.7199 19.5126 13.3261 18.767 12.9691 18.0257C13.326 17.2826 13.7189 16.5362 14.1444 15.7983L14.1443 15.7984C14.571 15.0585 15.0201 14.345 15.4841 13.6656C16.3058 13.6035 17.1484 13.5711 18 13.5711C18.8554 13.5711 19.6991 13.6037 20.5206 13.6664C20.9775 14.3408 21.4235 15.052 21.8518 15.792C22.2851 16.5404 22.683 17.2818 23.043 18.0089C22.6841 18.7485 22.287 19.4974 21.8557 20.2454ZM24.2906 7.06465C25.2159 7.59821 25.5757 9.75007 24.9943 12.5718C24.9573 12.7519 24.9155 12.9353 24.8702 13.1211C23.7239 12.8566 22.4791 12.6598 21.1759 12.5375C20.4166 11.4564 19.6299 10.4735 18.8402 9.62259C19.0525 9.41834 19.2645 9.22359 19.4757 9.0398C21.5155 7.26462 23.422 6.56374 24.2906 7.06465ZM18 15.5301C19.3626 15.5301 20.4673 16.6347 20.4673 17.9973C20.4673 19.3599 19.3626 20.4646 18 20.4646C16.6374 20.4646 15.5327 19.3599 15.5327 17.9973C15.5327 16.6347 16.6374 15.5301 18 15.5301Z" fill="#00D8FF"/>
<defs>
<linearGradient id="paint0_linear_297_1471" x1="0" y1="0.0369873" x2="36" y2="36.037" gradientUnits="userSpaceOnUse">
<stop offset="0.05" stop-color="#00D8FF"/>
<stop offset="0.25" stop-color="#326C79"/>
<stop offset="0.75" stop-color="#326C79"/>
<stop offset="0.95" stop-color="#00D8FF"/>
</linearGradient>
</defs>
</svg>
