<svg width="36" height="37" viewBox="0 0 36 37" fill="none" xmlns="http://www.w3.org/2000/svg">
<path d="M8 0.286987H28C32.2802 0.286987 35.75 3.75678 35.75 8.03699V28.037C35.75 32.3172 32.2802 35.787 28 35.787H8C3.71979 35.787 0.25 32.3172 0.25 28.037V8.03699C0.25 3.75678 3.71979 0.286987 8 0.286987Z" fill="#052F4A"/>
<path d="M8 0.286987H28C32.2802 0.286987 35.75 3.75678 35.75 8.03699V28.037C35.75 32.3172 32.2802 35.787 28 35.787H8C3.71979 35.787 0.25 32.3172 0.25 28.037V8.03699C0.25 3.75678 3.71979 0.286987 8 0.286987Z" stroke="url(#paint0_linear_297_1481)" stroke-width="0.5"/>
<path d="M11.6895 16.0753C12.5309 12.7097 14.6344 11.0269 18 11.0269C23.0485 11.0269 23.6796 14.8132 26.2038 15.4443C27.8866 15.865 29.3591 15.2339 30.6212 13.5511C29.7798 16.9167 27.6762 18.5995 24.3106 18.5995C19.2622 18.5995 18.6311 14.8132 16.1069 14.1821C14.4241 13.7614 12.9516 14.3925 11.6895 16.0753ZM5.37891 23.648C6.22032 20.2824 8.32384 18.5995 11.6895 18.5995C16.7379 18.5995 17.369 22.3859 19.8932 23.0169C21.576 23.4376 23.0485 22.8066 24.3106 21.1238C23.4692 24.4894 21.3657 26.1722 18 26.1722C12.9516 26.1722 12.3205 22.3859 9.7963 21.7548C8.11349 21.3341 6.64102 21.9652 5.37891 23.648Z" fill="#00BCFF"/>
<defs>
<linearGradient id="paint0_linear_297_1481" x1="0" y1="0.0369873" x2="36" y2="36.037" gradientUnits="userSpaceOnUse">
<stop offset="0.05" stop-color="#00BCFF"/>
<stop offset="0.5" stop-color="#00598A"/>
<stop offset="0.75" stop-color="#00598A"/>
<stop offset="0.95" stop-color="#00BCFF"/>
</linearGradient>
</defs>
</svg>
