<svg width="24" height="25" viewBox="0 0 24 25" fill="none" xmlns="http://www.w3.org/2000/svg">
<g clip-path="url(#clip0_261_5694)">
<path d="M4.56849 19.4628L8.91516 18.2981M4.56849 19.4628L5.73318 23.8095L10.0798 22.6448M4.56849 19.4628L3.40381 15.1161L7.75047 13.9514L8.91516 18.2981M8.91516 18.2981L10.0798 22.6448M8.91516 18.2981L13.2618 17.1334M10.0798 22.6448L14.4265 21.4801M13.2618 17.1334L14.4265 21.4801M13.2618 17.1334L17.6085 15.9687M14.4265 21.4801L18.7732 20.3154M17.6085 15.9687L18.7732 20.3154M17.6085 15.9687L21.9552 14.8041L23.1198 19.1507L18.7732 20.3154M5.22699 4.53367L18.267 1.03961L19.4317 5.38628L6.39167 8.88033L5.22699 4.53367ZM11.903 12.0623L9.57366 3.36898L13.9203 2.2043L16.2497 10.8976L11.903 12.0623Z" stroke="#F3F4F6" stroke-width="2" stroke-miterlimit="10" stroke-linecap="round" stroke-linejoin="round"/>
</g>
<defs>
<clipPath id="clip0_261_5694">
<rect width="24" height="24" fill="white" transform="translate(0 0.0495605)"/>
</clipPath>
</defs>
</svg>
