<svg width="29" height="28" viewBox="0 0 29 28" fill="none" xmlns="http://www.w3.org/2000/svg">
<path d="M14.375 0C12.1327 0 10.315 1.81772 10.315 4.06V4.19829L10.2172 4.10051C8.63169 2.51498 6.06104 2.51498 4.47551 4.10051C2.88998 5.68604 2.88998 8.25668 4.47551 9.84221L4.57329 9.94H4.435C2.19272 9.94 0.375 11.7577 0.375 14C0.375 16.2423 2.19272 18.06 4.435 18.06H4.57329L4.47551 18.1578C2.88998 19.7433 2.88998 22.314 4.47551 23.8995C6.06104 25.485 8.63168 25.485 10.2172 23.8995L10.315 23.8017V23.94C10.315 26.1823 12.1327 28 14.375 28C16.6173 28 18.435 26.1823 18.435 23.94V23.8017L18.5328 23.8995C20.1183 25.485 22.689 25.485 24.2745 23.8995C25.86 22.314 25.86 19.7433 24.2745 18.1578L24.1767 18.06H24.315C26.5573 18.06 28.375 16.2423 28.375 14C28.375 11.7577 26.5573 9.94 24.315 9.94H24.1767L24.2745 9.84221C25.86 8.25668 25.86 5.68603 24.2745 4.1005C22.689 2.51497 20.1183 2.51497 18.5328 4.1005L18.435 4.19829V4.06C18.435 1.81772 16.6173 0 14.375 0Z" fill="#E35029"/>
</svg>
