<svg width="29" height="28" viewBox="0 0 29 28" fill="none" xmlns="http://www.w3.org/2000/svg">
<path d="M14.875 0C12.6327 0 10.815 1.81772 10.815 4.06V4.19829L10.7172 4.10051C9.13169 2.51498 6.56104 2.51498 4.97551 4.10051C3.38998 5.68604 3.38998 8.25668 4.97551 9.84221L5.07329 9.94H4.935C2.69272 9.94 0.875 11.7577 0.875 14C0.875 16.2423 2.69272 18.06 4.935 18.06H5.07329L4.97551 18.1578C3.38998 19.7433 3.38998 22.314 4.97551 23.8995C6.56104 25.485 9.13168 25.485 10.7172 23.8995L10.815 23.8017V23.94C10.815 26.1823 12.6327 28 14.875 28C17.1173 28 18.935 26.1823 18.935 23.94V23.8017L19.0328 23.8995C20.6183 25.485 23.189 25.485 24.7745 23.8995C26.36 22.314 26.36 19.7433 24.7745 18.1578L24.6767 18.06H24.815C27.0573 18.06 28.875 16.2423 28.875 14C28.875 11.7577 27.0573 9.94 24.815 9.94H24.6767L24.7745 9.84221C26.36 8.25668 26.36 5.68603 24.7745 4.1005C23.189 2.51497 20.6183 2.51497 19.0328 4.1005L18.935 4.19829V4.06C18.935 1.81772 17.1173 0 14.875 0Z" fill="#ED95BA"/>
</svg>
