<svg width="29" height="28" viewBox="0 0 29 28" fill="none" xmlns="http://www.w3.org/2000/svg">
<path d="M3.04991 26.3594C8.74145 22.0658 11.5872 19.919 14.8751 19.919C18.1629 19.919 21.0087 22.0658 26.7002 26.3594L28.875 28L27.2343 25.8252C22.9407 20.1337 20.7939 17.2879 20.7939 14.0001C20.7939 10.7122 22.9407 7.86647 27.2343 2.17492L28.875 6.54063e-05L26.7002 1.64073C21.0087 5.93435 18.1629 8.08116 14.8751 8.08116C11.5872 8.08116 8.74145 5.93435 3.04991 1.64073L0.875 0L2.51572 2.17492C6.80934 7.86646 8.95614 10.7122 8.95614 14.0001C8.95614 17.2879 6.80934 20.1337 2.51573 25.8252L0.875055 28.0001L3.04991 26.3594Z" fill="#F8D505"/>
</svg>
