<svg width="29" height="28" viewBox="0 0 29 28" fill="none" xmlns="http://www.w3.org/2000/svg">
<path d="M2.54991 26.3594C8.24145 22.0658 11.0872 19.919 14.3751 19.919C17.6629 19.919 20.5087 22.0658 26.2002 26.3594L28.375 28L26.7343 25.8252C22.4407 20.1337 20.2939 17.2879 20.2939 14.0001C20.2939 10.7122 22.4407 7.86647 26.7343 2.17492L28.375 6.54063e-05L26.2002 1.64073C20.5087 5.93435 17.6629 8.08116 14.3751 8.08116C11.0872 8.08116 8.24145 5.93435 2.54991 1.64073L0.375 0L2.01572 2.17492C6.30934 7.86646 8.45614 10.7122 8.45614 14.0001C8.45614 17.2879 6.30934 20.1337 2.01573 25.8252L0.375055 28.0001L2.54991 26.3594Z" fill="#F8D505"/>
</svg>
